<?xml version="1.0" encoding="UTF-8"?>
<svg id="Calque_1" xmlns="http://www.w3.org/2000/svg" version="1.1" viewBox="0 0 983.04 983.04">
  <!-- Generator: Adobe Illustrator 30.3.0, SVG Export Plug-In . SVG Version: 2.1.3 Build 182)  -->
  <path d="M370.07,660.29c-1.58-21.52,13.61-40.22,35.24-42.2l12.31-.28c18.59-.43,33.11-14.95,34.51-33.48l.2-13.85c1.73-19.33,17.45-34.5,37.04-35.51l12.28-.16c17.89-1.22,31.86-14.96,33.02-33.04l.05-20.05c.04-16.6-15.92-33.47-32.99-33.59l-16.3-.11c-19.85-.14-36.28,14.57-37.2,34.4l-.1,10.78c-.63,20.21-16.46,36.38-36.64,37.39l-12.93.14c-17.71,1.33-31.22,14.91-32.85,32.47l-.27,13.05c-.86,19.73-16.36,35.01-35.64,36.79-24.41,2.26-44.26-17.21-42.7-41.67.68-10.62-2.66-21.17-9.59-29-6.35-7.16-14.41-11.6-23.94-11.7l-12.47-.13c-9.98-.73-19-4.8-25.76-12.1-11.38-12.28-13.98-29.9-6.41-44.89,7.2-14.27,22.37-22.59,38.85-21.43,20.32,1.43,37.51-12.75,39.04-33.25l.07-19.71c-.6-9.51-4.66-18.64-11.7-24.95-6.31-5.66-14.16-9.07-22.55-9.06l-17.86.03c-18.41.03-34.63,15.68-34.7,34.36l-.04,9.06c-14.64,2.15-31.53,10.02-42.35,19.92-7.27,6.65-13.18,13.79-17.82,22.6-20.65,39.24-8.79,87.12,28.85,111.1,9.58,6.11,19.65,10.49,31.17,11.94l.27,9.3c.56,18.97,16.05,34.15,35.6,34.44l12.04.18c13.88,1.22,25.94,9.74,31.73,22.38,2.61,5.71,2.94,11.65,3.14,17.85l.38,11.81c2.55,16.01,15.16,28.51,31.53,29.75l22.04.07c20.4-.98,34.92-19.31,33.42-39.67Z"/>
  <path d="M662.52,613.16c-5.45.3-10.54-.06-15.71-1.4-19.24-4.99-31.42-22.88-28.93-42.85,2.24-17.93,17.33-32.32,35.44-33.88l13.88-.23c9.92-.92,19.09-5.18,25.29-13.01,4.97-6.28,7.85-13.8,7.84-21.83v-15.89c-.02-19.14-14.96-36.02-34.43-35.95l-19.24.06c-20.44,1.44-35.12,19.31-33.52,39.78,1.76,22.51-14.46,42.27-37.64,42.45-14.64.11-27.98,5.97-36.51,18.44-5.07,7.4-8.34,15.67-8.18,24.89.36,20.35-14.86,37.38-35.17,39.25l-9.31.19c-19.7-.93-37.07,14-38.05,33.86l.07,21.08c1.28,16.72,14.19,30.1,30.99,31.71,8.08.78,16.07.77,24.11,0,16.51-1.59,29.06-14.38,31.16-30.54l.34-10.49c-.44-11.88,4.16-23.06,12.94-31.06,15.75-14.36,41.47-12.9,55.7,3.62,10.32,11.98,12.27,28.81,5.62,43.1-1.67,3.58-4.09,6.33-6.39,9.47l-.81.73c-3.02,2.72-5.96,5.33-9.56,7.07l-1.15.56c-6.3,3.05-13.14,4-20.5,3.47-14.05-1.02-27.35,5.03-34.63,17.2-4.31,7.21-5.64,15.23-5.4,23.63.35,12.18-4.52,23.34-13.59,31.32-15.34,13.5-38.65,12.65-53.1-1.67-8.3-8.23-12.3-19.25-11.85-31.08.32-8.58-1.58-16.78-6.41-23.79-6.34-9.2-16.3-15.48-27.61-15.48h-19.26c-18.27.86-32.56,15.77-33.42,33.97l-.02,18.3c0,8.65,3.92,16.79,9.79,23.22,6.16,6.73,14.96,10.57,24.12,11.18l21.15.18,10.61,12.98c8.89,9.02,19.84,16.25,31.78,20.6,30.78,11.21,64.76,3.34,87.98-19.51,4.43-4.36,8.02-9.08,11.74-14.1l22.48-.2c12.38-.81,22.63-7.84,28.37-18.54,2.54-4.74,4.16-9.42,4.16-14.91v-9.61c0-10.23,3.97-19.61,10.79-27.06,1.84-2.01,3.82-3.87,6.21-5.25l5.71-3.3c5.32-3.08,11.52-3.46,17.77-3.63l11.42-.31c9.02-1.2,17.21-5.4,22.91-12.49,5.02-6.25,7.84-13.81,7.86-21.82l.03-13.95c.01-5.31-.7-10.32-2.45-15.27-5.31-15-19.59-24.06-35.44-23.19Z"/>
  <path d="M831.42,434.8c-12.75-13.82-29.64-23.56-48.28-26.03l-.27-11.09c-.15-6.31-2.65-12.36-6.29-17.57-6.68-9.57-17.47-14.9-29.06-15.01l-13.49-.13c-10.58-1.11-19.81-6.92-26.06-15.28-5.82-7.79-8.02-17.05-7.48-26.87.57-10.4-1.96-20.42-8.76-28.19-6.14-7.02-14.06-11.36-23.47-12.03l-14.4-.16c-5.92-.06-11.45-1.98-16.52-4.82-3.67-2.05-6.49-4.93-9.67-7.62l-.64-.93c-2.37-3.47-5.05-6.49-6.57-10.48l-.53-1.38c-1.22-3.2-1.89-6.49-2.12-10.02l-.13-1.93-.26-13.45-.33-1.11c-.59-5.5-2.81-10.36-5.84-15.03-5.67-8.72-14.53-14.38-25.11-15.11l-22.48-.26c-.87-.01-1.58-1-2.06-1.7-16.17-23.48-42.8-37.3-71.13-36.92-28.04.38-54.6,14.67-70.11,38.65l-21.37.12c-8.47.05-16.23,3.48-22.38,9.34-8.12,7.74-11.82,18.68-11.12,29.99.7,11.5-2.55,22.11-10.47,30.44-6.55,6.89-14.68,11.17-24.35,12.12l-15.16.29c-17.03.33-32.79,16.83-32.86,34.61l-.07,17.14c-.05,12.95,7.31,24.82,18.64,30.93,7.17,3.87,14.8,4.91,22.88,4.44,12.18-.7,23.3,3.84,31.39,12.95,9.06,10.19,12.31,24.3,8.39,37.5-4.43,14.92-18.74,26.87-34.46,27.82l-13.47.14c-18.15,1.11-32.15,15.28-33.29,33.4l-.14,16.02c-.09,10.28,3.51,20.49,11.08,27.53,6.51,6.05,14.92,9.76,23.73,9.73l17.34-.07c21-.09,37.01-19.22,35.33-40.99-1.78-23.12,15.98-42.08,39.16-41.62,11.76.23,22.34-4.52,30.57-12.73,8.85-8.83,12.86-20.16,12.84-32.67-.02-13.86,8.44-26.45,20.47-32.79,6.79-3.58,13.9-4.46,21.47-4.14,10.57.44,20.57-2.4,28.45-9.42,7.41-6.61,11.82-15.56,11.81-25.57v-17.8c-.03-17.5-15.61-34.4-33.06-34.39h-19.18c-15.55.01-30.11,12.13-33.5,27.82-.94,4.33-1.35,8.77-1.04,13.24,1.67,24.35-18.57,43.81-42.86,41.44-10.04-.98-18.91-5.59-25.72-13.16-6.46-7.18-9.36-16.11-9.46-25.78-.22-21.53,16.57-39.14,38.19-39.29l9.11-.07c20.8-.15,36.62-18.33,35.16-39.34-1.61-23.12,16.03-42.47,39.31-42.41,11.07.03,21.32,4.3,28.76,12.56,7.33,8.14,10.93,18.28,10.2,29.32-.68,10.41,2.62,20.04,9.46,27.84,4.45,5.08,10.06,8.85,16.53,10.67,3.44.97,6.71,1.51,10.34,1.51h9.85c4.03-.02,7.88.74,11.58,2.24l1.32.53c4.4,1.78,7.95,4.58,11.52,7.62.24.2.91.46.98.72.29,1.17,1.52,1.91,2.28,2.98l3.46,4.89c6.64,12.01,7.28,26.58.67,38.85-6.01,11.16-17.06,18.69-29.63,20.12l-15.94.43c-17.75,1.9-31.28,15.8-32.23,33.7l-.04,17.53c-.04,18.34,15.08,35.44,33.77,35.4l20.18-.04c18.16-1.38,31.83-16.6,32.77-34.56l.14-12.59c1.78-19.06,17.6-34.01,36.58-35.07,9.35-.52,17.59,1.36,25.17,6.69,2.6,1.83,5.16,3.91,7.23,6.4,2.93,3.52,5.42,7.37,6.95,11.57,2.09,5.75,2.85,11.76,2.43,18.18-1.16,17.7,9.56,33.9,26.79,38.53,11.73,3.15,24.48-3.16,40.13,8.83,10.2,7.81,15.82,19.4,15.54,32.29-.43,20.45-15.92,36.88-36.39,38.32l-12.45.17c-17.94.24-33.57,17.19-33.55,35.91l.02,16.86c.02,17.52,15.72,34.13,34.05,34.17l18.21.04c18.11.04,32.55-14.13,34.35-32.06l.52-11.5c28.59-3.86,54.2-25.45,64.38-52.15,11.25-29.51,5.18-63.96-16.24-87.19Z"/>
</svg>