<svg xmlns="http://www.w3.org/2000/svg" viewBox="0 0 364.45 363.14" fill="#1a0708" aria-label="NYSA logo">
  <path d="M145.5,248.11l.08,9.95-72.15-.19c-18.98-.05-36.22-8.4-50.34-20.67C9.9,224.3.98,207.45.26,188.7l-.26-45.17h76.92s.35,42.44.35,42.44c1.32,23.72,20.67,41.45,44.2,40.93,12.24.05,22.85,8.79,24.03,21.22Z"/>
  <path d="M138.91,130.42c-.07,6.47-1.14,12.13-4.81,16.99-3.74,4.96-8.99,8.06-15.3,8.61l.18-79.61c.04-18.43,7.65-35.5,19.05-49.62C151.5,11.81,169.48,1.5,189.87.29l39.05-.29v79.9s-41.22.2-41.22.2c-13.17.06-25.11,6.26-34.37,15.21-9.07,9.63-14.27,21.45-14.42,35.12Z"/>
  <path d="M138.13,363.14v-77.74s39.92-.26,39.92-.26c28.92-1.39,50.26-25.66,49.68-54.16-.24-11.96,9.41-21.35,20.99-22.39l-.1,78.56c-.04,28.25-16.5,53.68-40.91,67.21-9.73,4.87-19.59,8.61-30.61,8.65l-38.98.13Z"/>
  <path d="M364.45,218.92l-75.57.03-.1-49.39c-.04-20.99-17.12-38.59-37.95-39.34-7.09-.26-13.14-1.84-17.63-6.76-4.46-4.88-6.65-11.34-5.71-18.22l60.85.04c7.84,0,14.76,1.79,22.14,4,29.8,10.83,51.67,38.12,53.66,70.12l.32,39.53Z"/>
  <path d="M216.51,190.7c-4.44,14.33-16.58,24.17-31.3,25.08-19.99,1.23-36.45-14.84-36.77-34.33-.32-19.53,15.62-36.08,35.61-35.61,10.81.25,20.59,5.82,26.48,13.59,6.92,9.12,9.36,20.34,5.97,31.27Z"/>
</svg>
